<svg width="800" height="450" viewBox="0 0 800 450" fill="none" xmlns="http://www.w3.org/2000/svg">
  <defs>
    <radialGradient id="glow6" cx="50%" cy="48%" r="50%">
      <stop offset="0%" stop-color="#10b981" stop-opacity="0.17"/>
      <stop offset="100%" stop-color="#0a0f0d" stop-opacity="0"/>
    </radialGradient>
    <pattern id="dots6" x="0" y="0" width="28" height="28" patternUnits="userSpaceOnUse">
      <circle cx="1" cy="1" r="1" fill="#10b981" fill-opacity="0.07"/>
    </pattern>
  </defs>
  <rect width="800" height="450" fill="#0a0f0d"/>
  <rect width="800" height="450" fill="url(#dots6)"/>
  <rect width="800" height="450" fill="url(#glow6)"/>
  <rect x="16" y="16" width="768" height="418" rx="14" fill="none" stroke="#10b981" stroke-opacity="0.2" stroke-width="1"/>
  <text x="32" y="50" font-family="Inter, system-ui, sans-serif" font-size="13" font-weight="600" fill="#10b981" fill-opacity="0.6" letter-spacing="3">IPTV TRENDS</text>
  <rect x="658" y="28" width="110" height="28" rx="6" fill="#10b981" fill-opacity="0.12"/>
  <rect x="658" y="28" width="110" height="28" rx="6" fill="none" stroke="#10b981" stroke-opacity="0.3" stroke-width="1"/>
  <text x="713" y="47" font-family="Inter, system-ui, sans-serif" font-size="12" font-weight="600" fill="#10b981" text-anchor="middle">6 MONTHS</text>
  <!-- Rocket icon -->
  <path d="M400 68 C400 68 418 72 426 90 L428 118 L420 126 L416 110 L408 118 L392 118 L384 110 L380 126 L372 118 L374 90 C382 72 400 68 400 68Z" fill="none" stroke="#10b981" stroke-width="2" stroke-linejoin="round"/>
  <circle cx="400" cy="93" r="7" fill="none" stroke="#10b981" stroke-width="2"/>
  <!-- Rocket flames -->
  <path d="M390 126 L394 140 L400 132 L406 140 L410 126" fill="none" stroke="#10b981" stroke-width="1.5" stroke-linecap="round" stroke-linejoin="round" stroke-opacity="0.6"/>
  <!-- Plan name -->
  <text x="400" y="202" font-family="Inter, system-ui, sans-serif" font-size="46" font-weight="800" fill="#f5f5f5" text-anchor="middle" letter-spacing="-1.5">6 MONTHS</text>
  <text x="400" y="228" font-family="Inter, system-ui, sans-serif" font-size="14" font-weight="500" fill="#f5f5f5" fill-opacity="0.4" text-anchor="middle" letter-spacing="4">IPTV SUBSCRIPTION</text>
  <!-- Price -->
  <text x="400" y="298" font-family="Inter, system-ui, sans-serif" font-size="64" font-weight="800" fill="#10b981" text-anchor="middle" letter-spacing="-2">$55.99</text>
  <text x="400" y="326" font-family="Inter, system-ui, sans-serif" font-size="14" fill="#f5f5f5" fill-opacity="0.35" text-anchor="middle">only $9.33/month · save 53%</text>
  <!-- Feature chips -->
  <rect x="66" y="360" width="180" height="32" rx="16" fill="#10b981" fill-opacity="0.1"/>
  <rect x="66" y="360" width="180" height="32" rx="16" fill="none" stroke="#10b981" stroke-opacity="0.25" stroke-width="1"/>
  <circle cx="88" cy="376" r="4" fill="#10b981"/>
  <text x="100" y="381" font-family="Inter, system-ui, sans-serif" font-size="13" font-weight="500" fill="#f5f5f5" fill-opacity="0.75">Premium Priority Server</text>
  <rect x="310" y="360" width="180" height="32" rx="16" fill="#10b981" fill-opacity="0.1"/>
  <rect x="310" y="360" width="180" height="32" rx="16" fill="none" stroke="#10b981" stroke-opacity="0.25" stroke-width="1"/>
  <circle cx="332" cy="376" r="4" fill="#10b981"/>
  <text x="344" y="381" font-family="Inter, system-ui, sans-serif" font-size="13" font-weight="500" fill="#f5f5f5" fill-opacity="0.75">Catch-Up TV 7 Days</text>
  <rect x="554" y="360" width="180" height="32" rx="16" fill="#10b981" fill-opacity="0.1"/>
  <rect x="554" y="360" width="180" height="32" rx="16" fill="none" stroke="#10b981" stroke-opacity="0.25" stroke-width="1"/>
  <circle cx="576" cy="376" r="4" fill="#10b981"/>
  <text x="588" y="381" font-family="Inter, system-ui, sans-serif" font-size="13" font-weight="500" fill="#f5f5f5" fill-opacity="0.75">Zero Buffer Guarantee</text>
  <text x="400" y="432" font-family="Inter, system-ui, sans-serif" font-size="12" fill="#10b981" fill-opacity="0.35" text-anchor="middle">www.trendsiptv.com</text>
</svg>
